<svg version="1.1" xmlns="http://www.w3.org/2000/svg" width="32" height="32" viewBox="0 0 32 32">
<path fill="#013bff" opacity="0.875" d="M17.867 3.467c-1.422 0.711-2.844 0.711-4.267 0v-2.133h4.267v2.133z"></path>
<path fill="#0571f5" opacity="0.953" d="M13.6 3.467c1.422 0.711 2.844 0.711 4.267 0 8.695 2.997 11.895 8.863 9.6 17.6-4.475 7.506-10.698 9.372-18.667 5.6-1.927-1.655-3.527-3.522-4.8-5.6-2.295-8.737 0.905-14.603 9.6-17.6z"></path>
<path fill="#50adfe" d="M17.333 6.667h-1.6v8h-0.533c-1.46-1.73-2.941-3.296-4.506-4.774l-0.027-0.026c-0.204 0.297-0.471 0.475-0.8 0.533-0.178-0.533-0.533-0.889-1.067-1.067 2.364-2.626 5.208-3.515 8.533-2.667z"></path>
<path fill="#a0ddee" d="M17.333 6.667c7.848 2.724 9.981 7.879 6.4 15.467-5.333 4.978-10.667 4.978-16 0-2.43-4.549-2.075-8.816 1.067-12.8 0.533 0.178 0.889 0.533 1.067 1.067 1.277 2.012 2.685 3.759 4.265 5.332l0.001 0.001c-0.049 1.905 0.839 2.527 2.667 1.867 0.896-1.499 0.54-2.477-1.067-2.933v-8h1.6z"></path>
<path fill="#0841fe" d="M15.2 14.667c-0.178 0.533-0.533 0.889-1.067 1.067-1.582-1.574-2.99-3.321-4.194-5.211l-0.073-0.122c0.329-0.059 0.596-0.237 0.8-0.533 1.62 1.531 3.131 3.131 4.533 4.8z"></path>
<path fill="#1a7af7" d="M15.2 14.667h0.533c1.607 0.457 1.963 1.435 1.067 2.933-1.827 0.66-2.716 0.038-2.667-1.867 0.533-0.178 0.889-0.533 1.067-1.067z"></path>
<path fill="#000206" opacity="0.223" d="M4 21.067c1.273 2.078 2.873 3.945 4.8 5.6 7.969 3.772 14.191 1.906 18.667-5.6-1.78 5.697-5.691 8.541-11.733 8.533-6.043 0.007-9.954-2.837-11.733-8.533z"></path>
<path fill="#0552af" d="M7.733 22.133c5.333 4.978 10.667 4.978 16 0-1.765 3.154-4.521 4.754-8.267 4.8-3.519-0.198-6.097-1.798-7.733-4.8z"></path>
</svg>
