<svg version="1.1" xmlns="http://www.w3.org/2000/svg" width="32" height="32" viewBox="0 0 32 32">
<path fill="#90a3ad" opacity="0.996" d="M14.5-0.167c-0.963 0.592-1.407 1.481-1.333 2.667h-3.333v2c-0.107 0.741 0.115 1.352 0.667 1.833l-0.252-0.013c1.846 0.119 3.709 0.18 5.585 0.18s3.739-0.061 5.333-0.167c0.552-0.481 0.774-1.093 0.667-1.833v-2h-3.333c0.074-1.185-0.37-2.074-1.333-2.667h-2.667zM15.167 1.5c1.553-0.162 1.997 0.449 1.333 1.833-1.591 0.27-2.035-0.341-1.333-1.833z"></path>
<path fill="#6d4c41" opacity="0.991" d="M9.833 2.5v2c-0.873-0.089-1.707 0.022-2.5 0.333-0.222 7.333-0.222 14.667 0 22 2.808 0.22 5.642 0.331 8.5 0.333 2.858-0.002 5.692-0.113 8.5-0.333 0.222-7.333 0.222-14.667 0-22-0.793-0.312-1.627-0.423-2.5-0.333v-2c1.117-0.055 2.228 0.001 3.333 0.167 0.611 0.167 1 0.556 1.167 1.167 0.222 8 0.222 16 0 24-0.167 0.611-0.556 1-1.167 1.167-2.783 0.106-6.051 0.167-9.333 0.167s-6.55-0.061-9.803-0.18l0.47 0.014c-0.611-0.167-1-0.556-1.167-1.167-0.222-8-0.222-16 0-24 0.167-0.611 0.556-1 1.167-1.167 0.752-0.119 1.619-0.187 2.502-0.187 0.292 0 0.583 0.007 0.872 0.022l-0.040-0.002z"></path>
<path fill="#fefefd" d="M9.833 4.5c-0.107 0.741 0.115 1.352 0.667 1.833 3.556 0.222 7.111 0.222 10.667 0 0.552-0.481 0.774-1.093 0.667-1.833 0.873-0.089 1.707 0.022 2.5 0.333 0.222 7.333 0.222 14.667 0 22-2.808 0.22-5.642 0.331-8.5 0.333-2.994-0.002-5.958-0.123-8.888-0.358l0.388 0.025c-0.222-7.333-0.222-14.667 0-22 0.793-0.312 1.627-0.423 2.5-0.333z"></path>
<path fill="#e57d7d" d="M21.167 14.5c-0.778-1-1.667-1.889-2.667-2.667 0.399-0.907 1.065-1.296 2-1.167 0.835 0.67 1.51 1.505 1.981 2.458l0.019 0.042c-0.34 0.563-0.785 1.007-1.333 1.333z"></path>
<path fill="#b4bfc3" d="M18.5 11.833c1 0.778 1.889 1.667 2.667 2.667-0.333 0.556-0.778 1-1.333 1.333-1-0.778-1.889-1.667-2.667-2.667 0.333-0.556 0.778-1 1.333-1.333z"></path>
<path fill="#ff9801" d="M17.167 13.167c0.778 1 1.667 1.889 2.667 2.667-2.111 2.333-4.333 4.556-6.667 6.667-0.876-0.881-1.861-1.654-2.932-2.296l-0.068-0.038c2.248-2.468 4.532-4.752 6.918-6.926l0.082-0.074z"></path>
<path fill="#fdc01e" d="M10.167 20.167c1.139 0.68 2.124 1.452 2.999 2.333l0.001 0.001c-0.646 0.554-1.424 0.777-2.333 0.667-0.456-0.45-0.801-1.011-0.993-1.639l-0.007-0.028c-0.089-0.533 0.022-0.977 0.333-1.333z"></path>
<path fill="#575d52" d="M9.833 21.5c0.199 0.656 0.544 1.216 1 1.666l0 0c-0.427 0.477-0.982 0.699-1.667 0.667 0.074-0.856 0.296-1.633 0.667-2.333z"></path>
</svg>